<svg width="72" height="72" viewBox="0 0 72 72" fill="none" xmlns="http://www.w3.org/2000/svg">
<rect width="72" height="72" rx="12" fill="#C80000" fill-opacity="0.15"/>
<g clip-path="url(#clip0_825_757)">
<path d="M50.2223 37.8182C50.2223 46.9091 44.0001 51.4546 36.6045 54.0909C36.2172 54.2251 35.7966 54.2187 35.4134 54.0728C28.0001 51.4546 21.7778 46.9091 21.7778 37.8182V25.0909C21.7778 24.6087 21.9651 24.1463 22.2985 23.8053C22.6319 23.4643 23.0841 23.2727 23.5556 23.2727C27.1112 23.2727 31.5556 21.0909 34.6489 18.3273C35.0256 17.9982 35.5047 17.8174 36.0001 17.8174C36.4954 17.8174 36.9745 17.9982 37.3512 18.3273C40.4623 21.1091 44.8889 23.2727 48.4445 23.2727C48.916 23.2727 49.3682 23.4643 49.7016 23.8053C50.035 24.1463 50.2223 24.6087 50.2223 25.0909V37.8182Z" stroke="#C80000" stroke-width="3" stroke-linecap="round" stroke-linejoin="round"/>
<path d="M36 54.182V17.8184" stroke="#C80000" stroke-width="3" stroke-linecap="round" stroke-linejoin="round"/>
</g>
<defs>
<clipPath id="clip0_825_757">
<rect width="32" height="40" fill="white" transform="translate(20 16)"/>
</clipPath>
</defs>
</svg>
